<?xml version="1.0" encoding="UTF-8" standalone="no"?>
<svg
   xmlns:dc="http://purl.org/dc/elements/1.1/"
   xmlns:cc="http://creativecommons.org/ns#"
   xmlns:rdf="http://www.w3.org/1999/02/22-rdf-syntax-ns#"
   xmlns:svg="http://www.w3.org/2000/svg"
   xmlns="http://www.w3.org/2000/svg"
   xmlns:sodipodi="http://sodipodi.sourceforge.net/DTD/sodipodi-0.dtd"
   xmlns:inkscape="http://www.inkscape.org/namespaces/inkscape"
   inkscape:label="Play Icon"
   viewBox="0 0 1024 1024"
   version="1.1"
   id="svg19"
   sodipodi:docname="mh1.svg"
   inkscape:version="1.0 (4035a4fb49, 2020-05-01)"
   inkscape:export-filename="C:\Data\Code\WebApps\mediabox\icon\mh1\mh1.png"
   inkscape:export-xdpi="96"
   inkscape:export-ydpi="96">
  <metadata
     id="metadata23">
    <rdf:RDF>
      <cc:Work
         rdf:about="">
        <dc:format>image/svg+xml</dc:format>
        <dc:type
           rdf:resource="http://purl.org/dc/dcmitype/StillImage" />
        <dc:title />
      </cc:Work>
    </rdf:RDF>
  </metadata>
  <sodipodi:namedview
     inkscape:document-rotation="0"
     pagecolor="#ffffff"
     bordercolor="#666666"
     borderopacity="1"
     objecttolerance="10"
     gridtolerance="10"
     guidetolerance="10"
     inkscape:pageopacity="0"
     inkscape:pageshadow="2"
     inkscape:window-width="1920"
     inkscape:window-height="1027"
     id="namedview21"
     showgrid="false"
     inkscape:zoom="0.79651654"
     inkscape:cx="408.54188"
     inkscape:cy="489.15022"
     inkscape:window-x="-8"
     inkscape:window-y="-8"
     inkscape:window-maximized="1"
     inkscape:current-layer="svg19" />
  <defs
     id="defs4">
    <style
       id="style2">.cls-1{isolation:isolate;}.cls-2{mix-blend-mode:multiply;}.cls-3{fill:#f44336;}.cls-4{mix-blend-mode:hard-light;}.cls-5{fill:#fff;}</style>
    <filter
       height="1.0748688"
       y="-0.0374344"
       width="1.0380537"
       x="-0.019026848"
       id="filter1399"
       style="color-interpolation-filters:sRGB"
       inkscape:collect="always">
      <feGaussianBlur
         id="feGaussianBlur1401"
         stdDeviation="7.8974319"
         inkscape:collect="always" />
    </filter>
    <filter
       height="1.2055008"
       y="-0.10275039"
       width="1.2557623"
       x="-0.12788116"
       id="filter1998"
       style="color-interpolation-filters:sRGB"
       inkscape:collect="always">
      <feGaussianBlur
         id="feGaussianBlur2000"
         stdDeviation="4.3390562"
         inkscape:collect="always" />
    </filter>
  </defs>
  <g
     inkscape:label="M-Shadow"
     style="opacity:0.830861;fill:#000001;fill-opacity:1;filter:url(#filter1399)"
     transform="matrix(0.98846564,0,0,0.98846564,-27.956757,-0.72675523)"
     id="g34">
    <path
       style="isolation:isolate;fill:#000001;fill-opacity:1"
       class="cls-3"
       d="m 998.63547,725.50779 v 0 a 118.86,118.86 0 0 0 22.31003,-166.61 l -205.17003,-268.58 a 118.87,118.87 0 0 0 -166.61,-22.31 v 0 a 118.85,118.85 0 0 0 -22.31,166.61 l 205.17,268.58 a 118.86,118.86 0 0 0 166.61,22.31 z"
       id="path8-6" />
    <path
       style="isolation:isolate;fill:#000001;fill-opacity:1"
       class="cls-3"
       d="m 65.875469,568.31779 -0.75,0.06 c 0,0 196.760001,-287.78 213.290001,-300.4 v 0 a 118.86,118.86 0 0 1 166.6,22.34 l 205.18,268.58 a 118.88,118.88 0 0 1 -22.31,166.61 v 0 a 118.86,118.86 0 0 1 -166.58,-22.31 l -162.81,-213.1 a 36.19,36.19 0 0 0 -27.06,-14.4 c -17.2,-1 -34.61,9.92 -38,29.56 l -0.15,0.89 a 35.88,35.88 0 0 0 12,32.62 118.51,118.51 0 0 1 17.16,18.15 l 1.52,2 a 118.87,118.87 0 0 1 -22.26,166.59 v 0 a 118.86,118.86 0 0 1 -166.610001,-22.31 l -1.51,-2 a 118.86,118.86 0 0 1 -7.71,-132.88 z"
       id="path10-7" />
    <path
       style="isolation:isolate;fill:#000001;fill-opacity:1"
       class="cls-5"
       d="m 859.48547,506.38779 -58.18,39.06 a 11.61,11.61 0 0 1 -18.08,-9.64 v -78.13 a 11.61,11.61 0 0 1 18.08,-9.64 l 58.23,39.07 a 11.6,11.6 0 0 1 -0.05,19.28 z"
       id="path14-1" />
  </g>
  <path
     inkscape:label="M-Right"
     style="isolation:isolate;stroke-width:0.988466"
     class="cls-3"
     d="m 947.29851,708.50504 v 0 A 117.48903,117.48903 0 0 0 969.35117,543.81678 L 766.54768,278.33468 A 117.49891,117.49891 0 0 0 601.85942,256.28201 v 0 a 117.47914,117.47914 0 0 0 -22.05267,164.68826 l 202.80349,265.4821 a 117.48903,117.48903 0 0 0 164.68827,22.05267 z"
     id="path8" />
  <path
     inkscape:label="M-Left"
     style="isolation:isolate;stroke-width:0.988466"
     class="cls-3"
     d="m 25.297294,553.12813 -0.741349,0.0593 c 0,0 194.490495,-284.46065 210.829835,-296.93508 v 0 a 117.48903,117.48903 0 0 1 164.67838,22.08232 l 202.81338,265.4821 a 117.5088,117.5088 0 0 1 -22.05267,164.68826 v 0 A 117.48903,117.48903 0 0 1 416.16626,686.45237 L 255.23417,475.81035 a 35.772572,35.772572 0 0 0 -26.74788,-14.23391 c -17.00161,-0.98847 -34.21079,9.80558 -37.56169,29.21904 l -0.14827,0.87974 a 35.466147,35.466147 0 0 0 11.86158,32.24375 117.14306,117.14306 0 0 1 16.96208,17.94065 l 1.50246,1.97693 a 117.49891,117.49891 0 0 1 -22.00324,164.66849 v 0 A 117.48903,117.48903 0 0 1 34.410947,686.45237 l -1.492583,-1.97693 a 117.48903,117.48903 0 0 1 -7.62107,-131.34731 z"
     id="path10" />
  <path
     inkscape:label="Play Icon Shadow"
     transform="matrix(0.9362239,0,0,0.9362239,35.120099,29.241221)"
     id="path14-2"
     d="m 824.87204,494.60842 -58.18,39.06 a 11.61,11.61 0 0 1 -18.08,-9.64 v -78.13 a 11.61,11.61 0 0 1 18.08,-9.64 l 58.23,39.07 a 11.6,11.6 0 0 1 -0.05,19.28 z"
     class="cls-5"
     style="opacity:0.836795;isolation:isolate;fill:#000000;filter:url(#filter1998)" />
  <path
     inkscape:label="Play Icon"
     style="display:inline;isolation:isolate;stroke-width:0.988466"
     class="cls-5"
     d="m 809.75351,491.91245 -57.50893,38.60947 a 11.476086,11.476086 0 0 1 -17.87146,-9.52881 v -77.22882 a 11.476086,11.476086 0 0 1 17.87146,-9.52881 l 57.55835,38.61935 a 11.466201,11.466201 0 0 1 -0.0494,19.05762 z"
     id="path14" />
</svg>
